<?xml version="1.0" encoding="UTF-8"?>
<svg id="_лой_1" data-name="Слой 1" xmlns="http://www.w3.org/2000/svg" viewBox="0 0 800 462.3">
  <defs>
    <style>
      .cls-1 {
        fill: #034956;
      }

      .cls-2 {
        fill: none;
        stroke: #f6faf7;
        stroke-miterlimit: 10.4;
        stroke-width: 2.6px;
      }
    </style>
  </defs>
  <g id="Layer_2" data-name="Layer 2">
    <g id="Layer_1-2" data-name="Layer 1-2">
      <path class="cls-1" d="M107.7,217.1c3.3-8.6,6.4-16.2,9.1-23.9,10.4-29.7,33.9-42.3,62.6-47.3,8.7-1.5,17.9-.6,26.8-.7h16.6c.7-11.6,1.9-21.8,1.6-32-.3-14.4,5.5-25.6,14.3-36.5C278.3,27.5,330.9,3.9,392.3,.2c31.1-1.9,60.2,8.8,87.1,24.8,25.2,15.1,42.8,36.7,55.3,63,1.9,4,4.2,7.8,6.9,12.7,28.1-5.8,55-5.2,78.3,14.6,21.8,18,36.2,43.4,40.4,71.4h16.1c14.9,.2,29.7-.6,44.3,3.5,21.9,6,39.3,17.4,51.4,36.8,17.4,27.7,28.7,57.2,27.8,90.6-.8,30.6-13,54.4-39.1,71.5-19.9,13.3-42.4,22.3-65.9,26.7-20.4,3.5-41,5.9-61.7,7.2-9,.2-17.9-.9-26.6-3.1-12.4-2.6-23.5,0-34.9,4.9-19.8,8.6-39.5,17.4-59.7,24.8-12.6,4.6-25.6,7.9-38.8,9.7-28.8,4.1-58.1,4.2-86.9,.2-26.3-3.9-49.4-16.3-71.2-30.9-4.3-2.9-8.7-5.7-13.8-9.1-7.6,4.4-15.1,9.1-22.9,13-7.4,3.7-15.1,6.6-22.7,9.5-15.4,5.8-31.7,9-48.1,9.5-24.7,1-49.1,2-73.5-4.3-59.5-15.3-102.9-49.8-127-106.6-10.3-24.2-8.5-49.7,.5-74.4,2.2-5.5,5.4-10.6,9.5-14.9,20.2-21.7,44.8-34.4,75.1-34.1h15.5Zm195.3,167.2c14.9,17.2,33.9,27.4,54.3,34.7,30.2,10.7,61.6,11.6,93,8.5,26.8-2.6,53.2-7.8,77.1-21.7,8.4-4.9,17.1-9.1,25.5-14,6.4-3.9,14.2-5.1,21.5-3.2,40.5,9.3,80.4,3,119.7-6.8,17.9-4.5,36.1-9.7,51.6-20.9,12.5-9.1,22.7-20.2,25.5-35.6,3.4-19.1,4.9-38.6-5.8-56.7-2.9-5.2-5.4-10.7-7.4-16.3-6.7-17.6-20.6-27-37.1-33.3-7-2.5-14.3-4.3-21.7-5.2-18.7-2.6-37.3-3.2-55.1,4.5-5.6,2.4-10.2,.6-14-3.8s-4.6-9.4,0-13.9,4-9.4,3.4-14.6c-2.6-25.7-15.7-44.6-37.7-57.4-6.6-3.9-13.2-6.5-21.1-5.4-7.3,1-15.1-.4-22.1,1.5-7.6,2-14.7,6.5-21.5,9.7-8.8-2.8-12.5-8.3-13.6-16.6-.9-7.3-1.7-15.2-5.2-21.4-15.3-27.6-36.8-48.1-67.4-59-26.1-9.5-54.4-10.9-81.3-4-38.1,8.8-72.3,29.7-97.6,59.5-8.1,9-13.3,20.1-15.1,32-1.4,10.4-1.9,20.9-3.1,31.3-1.6,13.4-7.8,18.3-20.9,17.3-9.7-.7-19.5-2.6-29-1.6-35.2,3.3-53.2,17.8-60.7,49.4-.9,3.6-1.3,7.3-2.1,11-1.2,7.3-5.5,13.7-11.7,17.6-4.6-1-10.4-2.1-16-3.4-28.5-6.6-67,14.1-76.5,41.4-.9,2.8-1.6,5.8-2,8.7-4.2,24.7,3.6,50,20.9,68.1,24.4,27,55,42.5,90.2,50.1,26.1,5.7,51.9,3.4,78,.8,21.2-2.1,41-7.7,58.6-20,7.8-5.7,16.9-9.4,26.4-11Z"/>
      <path class="cls-2" d="M302.9,384.4c-9.5,1.6-18.6,5.3-26.4,11-17.6,12.3-37.4,17.9-58.6,20-26.1,2.6-52,4.9-78-.8-35.2-7.8-65.8-23-90.4-50.2-17.3-18.1-25-43.4-20.9-68.1,.4-3,1-5.9,2-8.7,9.5-27.3,48-48,76.5-41.4,5.7,1.3,11.4,2.5,16,3.4,6.2-4,10.4-10.4,11.7-17.6,.8-3.6,1.2-7.4,2.1-11,7.5-31.6,25.5-46.1,60.7-49.4,9.5-.9,19.4,.9,29,1.6,13.2,1,19.4-3.9,20.9-17.3,1.2-10.4,1.7-20.9,3.1-31.3,1.8-11.9,7-23,15.1-32,25.3-29.8,59.6-50.7,97.7-59.6,26.9-6.9,55.2-5.5,81.3,4,30.6,10.9,52.2,31.3,67.4,59,3.4,6.2,4.2,14.2,5.2,21.4,1.1,8.3,4.7,13.9,13.6,16.6,6.8-3.2,13.9-7.7,21.5-9.7,7-1.8,14.8-.5,22.1-1.5,8-1,14.5,1.6,21.1,5.4,22.2,12.9,35.1,31.8,37.7,57.4,.5,5.2,.9,10.4-3.4,14.6s-3.9,9.3,0,13.9,8.3,6.2,14,3.8c17.9-7.8,36.5-7,55.1-4.5,7.4,.9,14.7,2.7,21.7,5.2,16.5,6.3,30.5,15.7,37.1,33.2,2,5.6,4.4,11.1,7.4,16.3,10.7,18.1,9.3,37.5,5.8,56.7-2.7,15.3-13,26.5-25.5,35.6-15.7,11.3-33.7,16.5-51.6,20.9-39.3,9.7-79.2,16.1-119.7,6.8-7.3-1.8-15.1-.7-21.5,3.2-8.4,4.9-17.1,9.1-25.5,14-23.8,13.9-50.2,19-77.1,21.7-31.3,3.1-62.8,2.3-93-8.5-20.3-7-39.3-17.2-54.2-34.4Z"/>
    </g>
  </g>
</svg>