<svg width="22" height="22" viewBox="0 0 22 22" fill="none" xmlns="http://www.w3.org/2000/svg">
<path fill-rule="evenodd" clip-rule="evenodd" d="M13.3549 6.81858C10.899 6.81858 11.0803 3.51535 13.2047 3.51535C15.3705 3.51535 15.4249 6.81858 13.3549 6.81858ZM16.5492 11.2315L16.5674 12.5249L14.0207 12.3904L13.3964 11.4721L14.3808 9.50617L15.101 10.8694L16.5492 11.2315ZM17.4197 20.0807V2.07196L5.05959 2.16249V15.0081L7.82383 14.6356L10.1166 9.06385L8.70984 9.04057L6.84715 12.1446C6.84715 12.1446 5.78497 11.8575 6.25648 10.678C6.72798 9.49841 7.75389 7.2816 7.75389 7.2816L11.3601 7.15485C11.3601 7.15485 13.1166 7.41352 13.7098 8.26455L12.3731 12.3102L14.3731 15.0081L15.1503 19.5323H15.1684L12.8368 21.9819L10.3756 22L13.5959 19.2038L12.6425 15.7557L10.6891 14.0226L9.04663 16.5084L4.01036 16.423L3.7513 17.2275L5.04663 17.7061V20.2928L3.14767 21.9069L0.0958546 21.8577L0 0L21.9663 0.085362L22 21.8965L15.7487 21.9509L17.4197 20.0807Z" fill="#F6FAF7"/>
</svg>
