<?xml version="1.0" encoding="UTF-8"?>
<svg id="_лой_1" data-name=" лой 1" xmlns="http://www.w3.org/2000/svg" viewBox="0 0 22 19.7">
  <defs>
    <style>
      .cls-1 {
        fill: #eb2f06;
        stroke: #eb2f06;
        stroke-miterlimit: 10;
        stroke-width: 2px;
      }
    </style>
  </defs>
  <path class="cls-1" d="M2.2,9.8C.3,7.5,.7,4.2,3,2.2h0C5.3,.2,8.3,.8,10.2,3.1c.2,.2,.5,.3,.8,.3s.6,0,.8-.3c1.9-2.2,4.9-2.8,7.2-.9,2.4,2,2.7,5.3,.8,7.7-.8,1.1-2.6,2.8-4.4,4.5-1.7,1.6-3.5,3.2-4.4,4-.9-.8-2.7-2.4-4.4-4-1.8-1.7-3.6-3.5-4.4-4.5h0Z"/>
</svg>