<?xml version="1.0" encoding="UTF-8"?>
<svg id="_лой_1" data-name="Слой 1" xmlns="http://www.w3.org/2000/svg" viewBox="0 0 9.8 8.5">
  <defs>
    <style>
      .cls-1 {
        fill: none;
        stroke: #ff0800;
        stroke-miterlimit: 10;
        stroke-width: .5px;
      }
    </style>
  </defs>
  <path class="cls-1" d="M9.6,2.6C9.6,1.3,8.5,.2,7.2,.2s-1.9,.6-2.3,1.5C4.5,.8,3.6,.2,2.6,.2S.2,1.3,.2,2.6s0,.6,.1,.8c.1,.3,.3,.6,.5,.8,0,0,.2,.2,.3,.3l3.8,3.8s0,0,0,0,0,0,0,0l3.9-3.9h0c.3-.3,.5-.6,.6-.9,0-.3,.1-.5,.1-.8Z"/>
</svg>