<svg width="26" height="22" viewBox="0 0 26 22" fill="none" xmlns="http://www.w3.org/2000/svg">
<path d="M6.07559 0.0242964C5.45642 0.0929787 4.62312 0.325442 4.05813 0.586963C3.27385 0.948866 2.66242 1.38473 2.0252 2.03986C0.701724 3.39766 0 5.14377 0 7.0748C0 8.20806 0.219289 9.19867 0.696564 10.2368C1.87814 12.8045 5.01526 16.1356 9.45521 19.5459C11.0083 20.7373 12.8348 22 13.0103 22C13.1909 22 15.4302 20.4309 16.9626 19.2316C21.2194 15.8978 24.1063 12.7913 25.293 10.2659C25.6774 9.44963 25.8657 8.78129 25.9689 7.87786C26.0205 7.4235 26.0051 6.41175 25.9431 6.01023C25.8219 5.24415 25.6155 4.57846 25.2982 3.91806C24.2946 1.83117 22.4139 0.409974 20.2004 0.0612792C19.816 0.00052176 19.0678 -0.0179696 18.6653 0.0190132C17.1484 0.164303 15.7501 0.77716 14.3828 1.89193C14.2125 2.03193 13.8307 2.3912 13.534 2.69234L12.9974 3.23916L12.8348 3.06481C12.7471 2.96707 12.6439 2.85084 12.6078 2.80857C12.502 2.67649 11.8493 2.0742 11.5501 1.83381C10.3427 0.853768 9.07597 0.269968 7.70864 0.0586376C7.38616 0.00844664 6.40065 -0.0126864 6.07559 0.0242964Z" fill="#F6FAF7"/>
</svg>
