<svg width="26" height="22" viewBox="0 0 26 22" fill="none" xmlns="http://www.w3.org/2000/svg">
<path d="M6.18584 1.0182L6.18863 1.01789C6.27637 1.0079 6.54225 1.00157 6.8719 1.00855C7.20123 1.01553 7.46718 1.0331 7.55485 1.04674L7.5559 1.0469C8.72816 1.22808 9.83347 1.7284 10.9198 2.61022L10.9238 2.61345C11.0463 2.71179 11.2642 2.90388 11.4736 3.097C11.5759 3.19129 11.6695 3.27972 11.7416 3.35003C11.8087 3.41557 11.8338 3.44295 11.8342 3.4426C11.8343 3.44253 11.8335 3.44153 11.8321 3.43966L11.8372 3.4461L11.8476 3.45822C11.8929 3.51127 12.0043 3.63652 12.0906 3.73272L12.0969 3.73977L12.1034 3.74669L12.2659 3.92104L12.9788 4.68579L13.7111 3.93957L14.2463 3.39415C14.2465 3.39396 14.2467 3.39377 14.2469 3.39359C14.5343 3.10188 14.8856 2.77337 15.0165 2.66546C16.2549 1.65627 17.4703 1.13842 18.7589 1.01463C19.0876 0.984743 19.75 1.00252 20.0442 1.04902L20.0447 1.0491C21.9217 1.34477 23.5303 2.54937 24.3968 4.35115C24.67 4.91972 24.8483 5.49111 24.9551 6.16434C24.9748 6.29348 24.9937 6.58756 24.9987 6.93856C25.0037 7.28699 24.9938 7.60244 24.9753 7.76497L6.18584 1.0182ZM6.18584 1.0182C5.67394 1.07498 4.94527 1.27826 4.47819 1.49446L4.47712 1.49496M6.18584 1.0182L4.47712 1.49496M4.47712 1.49496C3.80961 1.80297 3.29799 2.16553 2.74203 2.73711L2.7413 2.73786M4.47712 1.49496L2.7413 2.73786M2.7413 2.73786C1.6038 3.90485 1 5.39884 1 7.0748M2.7413 2.73786L1 7.0748M24.3883 9.83984L24.388 9.84058C23.3049 12.1454 20.5746 15.1326 16.3463 18.4441L24.3883 9.83984ZM24.3883 9.83984C24.7254 9.12406 24.8843 8.56159 24.9753 7.76502L24.3883 9.83984ZM1 7.0748C1 8.06155 1.18713 8.90977 1.60499 9.81879L1 7.0748ZM4.05813 0.586964C3.27385 0.948866 2.66242 1.38473 2.0252 2.03986L6.07559 0.0242958C5.45642 0.0929775 4.62312 0.325443 4.05813 0.586964ZM1.60515 9.81913C2.67993 12.1544 5.64978 15.3619 10.0639 18.7525L1.60515 9.81913ZM10.0644 18.7529C10.8279 19.3386 11.6591 19.9421 12.3176 20.3969C12.5856 20.582 12.8195 20.7386 13.0054 20.8578C13.242 20.7048 13.5526 20.4939 13.9057 20.2465C14.6677 19.7127 15.596 19.0312 16.346 18.4443L10.0644 18.7529Z" stroke="#F6FAF7" stroke-width="2"/>
</svg>
