<svg width="26" height="22" viewBox="0 0 26 22" fill="none" xmlns="http://www.w3.org/2000/svg">
<path d="M21.6758 7.39922L25.7092 10.9012C26.1965 11.3303 26.0574 11.6612 25.3965 11.6612H22.3712V20.8108C22.3712 21.4387 21.8149 22 21.154 22H15.9034V15.5912C15.9034 14.9633 15.3126 14.4021 14.6517 14.4021H11.3483C10.6874 14.4021 10.0966 14.9633 10.0966 15.5912V22H4.84599C4.18508 22 3.59427 21.4387 3.59427 20.8108V11.6612H0.603482C-0.0574281 11.6612 -0.196508 11.3303 0.290829 10.9012L12.0782 0.727238C12.5655 0.298083 13.4 0.298083 13.9207 0.727238L16.5977 3.0062V1.18916C16.5977 0.561284 17.1885 0 17.8495 0H20.4575C21.1184 0 21.6747 0.561284 21.6747 1.18916L21.6758 7.39922Z" fill="#F6FAF7"/>
</svg>
