<svg width="20" height="22" viewBox="0 0 20 22" fill="none" xmlns="http://www.w3.org/2000/svg">
<path fill-rule="evenodd" clip-rule="evenodd" d="M0.601817 10.0325H2.46616V9.84002V6.6453C2.46616 4.81823 3.33538 3.15695 4.734 1.95329V1.95168C6.13324 0.747835 8.06459 0 10.1897 0C12.3131 0 14.244 0.747835 15.6433 1.95168L15.6454 1.95329C17.044 3.15695 17.9132 4.81823 17.9132 6.6453V9.84002V10.0325H19.3982C19.7291 10.0325 20 10.2656 20 10.5501V21.4824C20 21.7669 19.7291 22 19.3982 22H0.601817C0.270942 22 0 21.7669 0 21.4824V10.5501C0 10.2656 0.270942 10.0325 0.601817 10.0325ZM5.46692 10.0325H14.9118V9.84002V6.60841C14.9118 5.49123 14.3803 4.47484 13.5255 3.73846L13.5244 3.73918C12.6689 3.00262 11.4878 2.54518 10.1897 2.54518C8.89095 2.54518 7.70979 3.00244 6.85326 3.73846C5.99819 4.47484 5.46692 5.49123 5.46692 6.60841V9.8402V10.0325ZM10.2278 16.0145L11.1811 19.7991L8.56798 19.8086L9.33482 15.9731C8.62084 15.7762 8.1033 15.2006 8.1033 14.5209C8.1033 13.6793 8.89615 12.9972 9.87483 12.9972C10.8525 12.9972 11.6459 13.6793 11.6459 14.5209C11.6459 15.2586 11.0366 15.8739 10.2278 16.0145Z" fill="#F6FAF7"/>
</svg>
