<?xml version="1.0" encoding="UTF-8"?>
<svg id="uuid-5c8a00de-5dfa-4b24-9bbe-cc6b92e9a0fe" data-name="Слой 1" xmlns="http://www.w3.org/2000/svg" width="3cm" height="3cm" viewBox="0 0 85 85">
  <path d="M56.8,42.5l25.3-25.3c3.9-3.9,3.9-10.3,0-14.3-3.9-3.9-10.3-3.9-14.3,0l-25.3,25.3L17.2,3C13.3-1,6.9-1,3,3-1,6.9-1,13.3,3,17.2l25.3,25.3L3,67.8c-3.9,3.9-3.9,10.3,0,14.3,2,2,4.6,3,7.1,3s5.2-1,7.1-3l25.3-25.3,25.3,25.3c2,2,4.6,3,7.1,3s5.2-1,7.1-3c3.9-3.9,3.9-10.3,0-14.3l-25.3-25.3Z" style="fill: #f6f6f6;"/>
</svg>