<svg width="22" height="22" viewBox="0 0 22 22" fill="none" xmlns="http://www.w3.org/2000/svg">
<path d="M21.4011 18.4794L17.8688 14.9145C17.1161 14.1547 15.851 14.3015 15.0967 15.0597V15.0597C14.3507 15.8094 14.2081 17.0533 14.9524 17.8045L18.5111 21.3958C19.3096 22.2014 20.6042 22.2014 21.401 21.3958C22.1996 20.5915 22.1996 19.285 21.4011 18.4794Z" fill="#16191a"/>
<path d="M16.5502 8.25016C16.5502 3.69413 12.8899 0 8.37516 0C3.86055 0 0.200012 3.69413 0.200012 8.25016C0.200012 12.8062 3.86055 16.5001 8.37516 16.5001C12.8899 16.5001 16.5502 12.8062 16.5502 8.25016ZM8.37516 14.4375C4.99412 14.4375 2.24386 11.6623 2.24386 8.2502C2.24386 4.83815 4.99412 2.06264 8.37516 2.06264C11.7561 2.06264 14.5066 4.83815 14.5066 8.2502C14.5066 11.6623 11.7561 14.4375 8.37516 14.4375Z" fill="#16191a"/>
<path d="M3.65378 7.57089C3.60139 7.94343 3.91139 8.25012 4.28759 8.25012V8.25012C4.66379 8.25012 4.96178 7.94214 5.0351 7.57315C5.30324 6.22378 6.35686 5.15734 7.69227 4.882C8.06414 4.80532 8.37514 4.5048 8.37514 4.12511V4.12511C8.37514 3.74541 8.06554 3.43236 7.68982 3.48718C5.60384 3.79156 3.95006 5.46405 3.65378 7.57089Z" fill="#16191a"/>
</svg>
