<svg width="22" height="22" viewBox="0 0 22 22" fill="none" xmlns="http://www.w3.org/2000/svg">
<path d="M17.0101 5.22314C17.226 5.00695 17.5762 5.00763 17.7914 5.22314C19.2568 6.68934 19.2568 9.07335 17.7921 10.5381C17.6842 10.646 17.5433 10.7 17.4014 10.7C17.2598 10.7 17.1187 10.646 17.0108 10.5381C16.795 10.3223 16.795 9.97267 17.0108 9.75684C18.0446 8.7227 18.0446 7.03927 17.0101 6.0044C16.7942 5.78862 16.7942 5.43864 17.0101 5.22314Z" fill="#034956"/>
<path d="M0.617688 18.4062L7.26793 11.7564C5.57157 8.75186 5.99315 4.86536 8.5476 2.30896C10.0368 0.819721 12.0166 0 14.1216 0C16.2273 0 18.207 0.819721 19.6956 2.30896C22.7666 5.38104 22.7659 10.3805 19.6947 13.4534C18.2049 14.942 16.2259 15.7617 14.1202 15.7617C12.7375 15.7617 11.4123 15.4016 10.2418 14.737L3.5953 21.3835C2.77386 22.2053 1.44145 22.2057 0.618413 21.3835C0.223587 20.9885 0.0019558 20.4533 0.00127553 19.8949C0.00127553 19.3363 0.223587 18.8011 0.617688 18.4062ZM18.1323 11.8907C20.3422 9.67951 20.3422 6.08213 18.1331 3.87131C17.0619 2.7998 15.6374 2.20991 14.1216 2.20991C12.6066 2.20991 11.1821 2.7998 10.1103 3.87099C7.90098 6.08213 7.90171 9.68019 10.1109 11.8913C11.1821 12.9622 12.6059 13.5517 14.1203 13.5517C15.6353 13.5517 17.0603 12.9618 18.1323 11.8907Z" fill="#034956"/>
</svg>
