<svg width="22" height="22" viewBox="0 0 22 22" fill="none" xmlns="http://www.w3.org/2000/svg">
<g clip-path="url(#clip0_24_26)">
<path d="M7.33333 8.06666C7.33333 6.04162 8.97495 4.39999 11 4.39999C13.025 4.39999 14.6667 6.04162 14.6667 8.06666C14.6667 10.0917 13.025 11.7333 11 11.7333C8.97495 11.7333 7.33333 10.0917 7.33333 8.06666Z" fill="#F6FAF7"/>
<path fill-rule="evenodd" clip-rule="evenodd" d="M11 0C4.92486 0 0 4.92486 0 11C0 17.0751 4.92486 22 11 22C17.0751 22 22 17.0751 22 11C22 4.92486 17.0751 0 11 0ZM1.46667 11C1.46667 5.73489 5.73489 1.46667 11 1.46667C16.2652 1.46667 20.5333 5.73489 20.5333 11C20.5333 13.7127 19.4003 16.1608 17.5817 17.8969C17.3602 15.2659 15.1548 13.2 12.4667 13.2H9.53333C6.84529 13.2 4.63973 15.2659 4.41829 17.8969C2.59968 16.1608 1.46667 13.7127 1.46667 11Z" fill="#F6FAF7"/>
</g>
<defs>
<clipPath id="clip0_24_26">
<rect width="22" height="22" fill="white"/>
</clipPath>
</defs>
</svg>
